# xmcd
#
# Track frame offsets: 
#        150
#        21794
#        41337
#        58405
#        81280
#        100251
#        120702
#        143281
#        160594
#        180022
#        201141
#        222808
#        245558
#
# Disc length: 3514 seconds
#
# Revision: 3
# Processed by: cddbd v1.5.2PL0 Copyright (c) Steve Scherf et al.
# Submitted via: ExactAudioCopy v1.0b3
#
DISCID=a30db80d
DTITLE=Браво - Хиты про любовь
DYEAR=1998
DGENRE=Rock and Roll
TTITLE0=Тише, послушай
TTITLE1=Там, так далеко
TTITLE2=Тот кто верит
TTITLE3=Девочка
TTITLE4=Под куполом звезд
TTITLE5=Новый герой
TTITLE6=Сон - обман
TTITLE7=Вера, Надежда, Любовь
TTITLE8=Серенада 2000
TTITLE9=Клоун
TTITLE10=В логичном мире
TTITLE11=На планете Гамма
TTITLE12=До свидания
EXTD=YEAR: 1998
EXTT0=
EXTT1=
EXTT2=
EXTT3=
EXTT4=
EXTT5=
EXTT6=
EXTT7=
EXTT8=
EXTT9=
EXTT10=
EXTT11=
EXTT12=
PLAYORDER=
